<?xml version="1.0" encoding="utf-8"?>
<!-- Generator: Adobe Illustrator 23.0.3, SVG Export Plug-In . SVG Version: 6.00 Build 0)  -->
<svg version="1.1" xmlns="http://www.w3.org/2000/svg" xmlns:xlink="http://www.w3.org/1999/xlink" x="0px" y="0px"
	 viewBox="0 0 841.9 841.9" style="enable-background:new 0 0 841.9 841.9;" xml:space="preserve">
<style type="text/css">
	.st0{display:none;}
	.st1{display:inline;}
	.st2{fill:#FFFFFF;stroke:#231F20;stroke-width:2;stroke-miterlimit:10;}
	.st3{fill:url(#SVGID_1_);}
	.st4{fill:url(#SVGID_2_);}
	.st5{fill:#ED3027;}
	.st6{fill:#FFFFFF;}
	.st7{fill:url(#SVGID_3_);}
	.st8{fill:url(#SVGID_4_);}
</style>
<g id="Black" class="st0">
	<g class="st1">
		<path d="M782.4,230.9L455.1,612.7l-2.7,3.1l-0.3,0.4c-0.5,0.5-0.9,0.9-1.5,1.3c-1.8,1.4-4,2.2-6.3,2.4h-17.8
			c-2.3-0.2-4.3-1.1-6-2.3c-0.6-0.5-1.2-1.1-1.7-1.6c-1.8-2-2.9-4.7-2.9-7.7c0,0,0,0,0,0V273.5L223.9,497.4l130.5-101.2l4.6-3.5
			c1.9-1.5,4.2-2.3,6.5-2.4c0.6,0,8-0.3,8.6-0.2l8.3,0.1c1.7,0,3.3,0.4,4.8,1.2c4,2,6.5,6,6.5,10.5v206.4c0,6.4-5.2,11.6-11.6,11.6
			h-8.3c-0.6,0.1-7.2,0-7.8,0c-6.4,0-11.7-5.2-11.7-11.6V438L123,617.5c-2,1.6-4.6,2.4-7.1,2.4H97.5c-4.6,0-8.7-2.6-10.6-6.7
			c-1.9-4.1-1.2-9,1.7-12.4L415.8,219l2.7-3.2c0.1-0.1,0.3-0.2,0.3-0.3c0.5-0.5,1-1,1.5-1.4c1.8-1.4,3.9-2.2,6.3-2.4h16.1
			c0.6,0,1.2,0,1.7,0c2.2,0.2,4.3,1,6,2.3c0.6,0.5,1.3,1.1,1.8,1.7c1.8,2.1,2.8,4.7,2.8,7.7c0,0,0,0,0,0v334.8l194.8-227.2
			L515.1,435.4l-4.6,3.5c-2,1.6-4.4,2.4-6.9,2.5l-14.4-0.2c0,0,0,0,0,0c-2.3,0.4-4.8,0.1-7-1c-4-2-6.5-6-6.5-10.5V223.3
			c0-6.5,5.2-11.7,11.7-11.7h16.1c6.4,0,11.7,5.2,11.7,11.7v170.2l231.4-179.4c2-1.6,4.6-2.4,7.1-2.4h19.9c4.6,0,8.7,2.6,10.5,6.8
			C786,222.6,785.3,227.4,782.4,230.9z"/>
	</g>
</g>
<g id="White">
	<g>
		<path class="st2" d="M782.4,230.9L455.1,612.7l-2.7,3.1l-0.3,0.4c-0.5,0.5-0.9,0.9-1.5,1.3c-1.8,1.4-4,2.2-6.3,2.4h-17.8
			c-2.3-0.2-4.3-1.1-6-2.3c-0.6-0.5-1.2-1.1-1.7-1.6c-1.8-2-2.9-4.7-2.9-7.7c0,0,0,0,0,0V273.5L223.9,497.4l130.5-101.2l4.6-3.5
			c1.9-1.5,4.2-2.3,6.5-2.4c0.6,0,8-0.3,8.6-0.2l8.3,0.1c1.7,0,3.3,0.4,4.8,1.2c4,2,6.5,6,6.5,10.5v206.4c0,6.4-5.2,11.6-11.6,11.6
			h-8.3c-0.6,0.1-7.2,0-7.8,0c-6.4,0-11.7-5.2-11.7-11.6V438L123,617.5c-2,1.6-4.6,2.4-7.1,2.4H97.5c-4.6,0-8.7-2.6-10.6-6.7
			c-1.9-4.1-1.2-9,1.7-12.4L415.8,219l2.7-3.2c0.1-0.1,0.3-0.2,0.3-0.3c0.5-0.5,1-1,1.5-1.4c1.8-1.4,3.9-2.2,6.3-2.4h16.1
			c0.6,0,1.2,0,1.7,0c2.2,0.2,4.3,1,6,2.3c0.6,0.5,1.3,1.1,1.8,1.7c1.8,2.1,2.8,4.7,2.8,7.7c0,0,0,0,0,0v334.8l194.8-227.2
			L515.1,435.4l-4.6,3.5c-2,1.6-4.4,2.4-6.9,2.5l-14.4-0.2c0,0,0,0,0,0c-2.3,0.4-4.8,0.1-7-1c-4-2-6.5-6-6.5-10.5V223.3
			c0-6.5,5.2-11.7,11.7-11.7h16.1c6.4,0,11.7,5.2,11.7,11.7v170.2l231.4-179.4c2-1.6,4.6-2.4,7.1-2.4h19.9c4.6,0,8.7,2.6,10.5,6.8
			C786,222.6,785.3,227.4,782.4,230.9z"/>
	</g>
</g>
<g id="Greyscale" class="st0">
	<g class="st1">
		<g>
			<linearGradient id="SVGID_1_" gradientUnits="userSpaceOnUse" x1="473.3059" y1="412.1545" x2="881.5972" y2="412.1545">
				<stop  offset="2.237672e-07" style="stop-color:#8B1B1D"/>
				<stop  offset="4.470250e-02" style="stop-color:#AB2120"/>
				<stop  offset="0.103" style="stop-color:#CE2723"/>
				<stop  offset="0.1508" style="stop-color:#E42C25"/>
				<stop  offset="0.1816" style="stop-color:#EC2D26"/>
				<stop  offset="0.2059" style="stop-color:#ED3A2C"/>
				<stop  offset="0.3121" style="stop-color:#F16E43"/>
				<stop  offset="0.4044" style="stop-color:#F49455"/>
				<stop  offset="0.4783" style="stop-color:#F5AB5F"/>
				<stop  offset="0.5245" style="stop-color:#F6B463"/>
				<stop  offset="0.6136" style="stop-color:#F9C770"/>
				<stop  offset="0.7318" style="stop-color:#FCD97C"/>
				<stop  offset="0.8571" style="stop-color:#FEE484"/>
				<stop  offset="1" style="stop-color:#FFE786"/>
			</linearGradient>
			<path class="st3" d="M782.9,218.4c-1.9-4.1-6-6.7-10.6-6.7h-3.9h-12.2h-3.9c-2.6,0-5.1,0.8-7.1,2.4L513.9,393.5v41.9l134.8-104.5
				L454,558.1v54.5l327.2-381.8C784.1,227.4,784.8,222.5,782.9,218.4z"/>
			<linearGradient id="SVGID_2_" gradientUnits="userSpaceOnUse" x1="-2.2534" y1="419.437" x2="406.0379" y2="419.437">
				<stop  offset="0" style="stop-color:#FFE786"/>
				<stop  offset="0.1379" style="stop-color:#FFE484"/>
				<stop  offset="0.2588" style="stop-color:#FED97F"/>
				<stop  offset="0.3734" style="stop-color:#FCC775"/>
				<stop  offset="0.4841" style="stop-color:#F9AD68"/>
				<stop  offset="0.592" style="stop-color:#F68D57"/>
				<stop  offset="0.6979" style="stop-color:#F26543"/>
				<stop  offset="0.8002" style="stop-color:#ED362B"/>
				<stop  offset="0.8184" style="stop-color:#EC2D26"/>
				<stop  offset="0.8645" style="stop-color:#E42E28"/>
				<stop  offset="0.9356" style="stop-color:#CE322F"/>
				<stop  offset="1" style="stop-color:#B53637"/>
			</linearGradient>
			<path class="st4" d="M87.4,600.7c-3,3.4-3.7,8.3-1.7,12.4c1.9,4.1,6,6.7,10.6,6.7h2.4h6.9h9.2c2.6,0,5.1-0.8,7.1-2.4L353.3,438
				v-41.9L222.7,497.4l191.9-223.9V219L87.4,600.7z"/>
			<path class="st5" d="M454,518V223.3c0,0,0,0,0,0c0-2.9-1.1-5.6-2.9-7.6c-0.5-0.6-1.1-1.2-1.8-1.7c-1.7-1.3-3.7-2.1-5.9-2.3
				c-0.6-0.1-1.2-0.1-1.8,0h-16.1c-2.4,0.2-4.5,1-6.3,2.4c-0.5,0.4-1.1,0.9-1.5,1.4c-0.1,0.1-0.2,0.3-0.3,0.4l-2.8,3.2v54.5v24
				v310.8c0,0,0,0,0,0c0,3,1.1,5.6,2.9,7.7c0.5,0.6,1.1,1.1,1.7,1.6c1.7,1.3,3.8,2.1,6,2.3c0.3,0,0.7,0,1,0h0.7h16.1
				c2.4-0.2,4.6-1,6.3-2.4c0.5-0.4,1-0.8,1.5-1.3l0.4-0.4l2.7-3.2v-54.5V518z"/>
			<path class="st5" d="M353.3,465.8v142.4c0,6.4,5.2,11.6,11.6,11.6c0.7,0,7.2,0.1,7.8,0h8.3c6.4,0,11.6-5.2,11.6-11.6V401.9
				c0-4.5-2.5-8.5-6.5-10.5c-1.5-0.8-3.2-1.1-4.8-1.2l-8.3-0.1c-0.7-0.1-8,0.1-8.6,0.2c-2.3,0.1-4.6,0.9-6.5,2.4l-4.5,3.5V438V465.8
				z"/>
			<path class="st5" d="M513.9,364.3v-141c0-6.4-5.2-11.6-11.6-11.6h-16.1c-6.4,0-11.6,5.2-11.6,11.6v206.4c0,4.5,2.6,8.5,6.5,10.5
				c2.2,1.1,4.7,1.4,7,1c0,0,0,0,0,0l14.4,0.2c2.5-0.1,4.9-0.9,6.9-2.4l4.5-3.5v-41.9V364.3z"/>
		</g>
		<rect x="84.6" y="211.7" class="st6" width="701.7" height="408.2"/>
	</g>
</g>
<g id="Outline" class="st0">
	<g class="st1">
		<path d="M371.7,626.3c-1.1,0-2.6,0-4.7,0l-0.9,0c-9.9,0-18-8.1-18-18V451L126.9,622.5c-3.1,2.4-6.9,3.8-11.1,3.8H97.5
			c-7,0-13.4-4.1-16.4-10.4c-3-6.4-1.9-14,2.7-19.3l330.4-385.6l0.2-0.1c0.6-0.6,1.3-1.3,2.1-1.8c2.8-2.1,6.1-3.4,9.7-3.6l0.5,0
			h15.9c1-0.1,2,0,2.9,0.1c3,0.3,6.2,1.5,8.8,3.5c0.9,0.7,1.9,1.6,2.8,2.6c2.9,3.3,4.4,7.4,4.4,11.8v317.6l142.7-166.4L514.4,444
			c-3,2.4-6.8,3.7-10.7,3.8l-14.1-0.2c-3.5,0.5-7.1-0.1-10.3-1.7c-6.2-3.1-10.1-9.3-10.1-16.2V223.3c0-9.9,8.1-18,18-18h16.1
			c9.9,0,18,8.1,18,18v157.2l221.1-171.5c3.2-2.4,7.1-3.8,11-3.8h19.9c7,0,13.5,4.1,16.4,10.5c2.9,6.3,1.9,13.9-2.7,19.2l0,0
			L456.8,620.4c-0.9,0.9-1.7,1.7-2.6,2.3c-2.5,1.9-5.8,3.2-9.5,3.5l-0.5,0l-18.4,0c-3.3-0.3-6.4-1.5-9.1-3.5
			c-1.2-0.9-2.1-1.8-2.6-2.5c-3-3.3-4.6-7.6-4.6-12V290.8L269.6,453.9l85.4-66.2c2.8-2.2,6.5-3.6,10.2-3.7h0c0,0,6.4-0.3,8.9-0.2v0
			l8.3,0.1c2.7,0.1,5.3,0.7,7.6,1.9c6.2,3,10,9.2,10,16.2v206.4c0,9.9-8.1,18-18,18h-7.9C373.7,626.3,373,626.3,371.7,626.3z
			 M360.8,425v183.3c0,2.9,2.4,5.2,5.3,5.2l1.1,0c1.6,0,4.7,0.1,5.9,0l0.9,0h8.3c2.9,0,5.2-2.3,5.2-5.2V401.9c0-2-1.1-3.8-2.9-4.7
			c-0.7-0.3-1.4-0.5-2.2-0.5l-8.8-0.1c-1.4,0-6.9,0.1-7.6,0.2c-1.2,0-2.2,0.4-2.9,1L178.2,541l244-284.7v352c0,1.3,0.4,2.5,1.3,3.4
			c0.2,0.2,0.4,0.5,0.7,0.7c0.8,0.6,1.7,0.9,2.6,1.1H444c1-0.1,2-0.5,2.7-1c0.4-0.3,0.5-0.4,0.7-0.6l2.9-3.4l327.2-381.8
			c1.3-1.6,1.6-3.8,0.8-5.6c-0.9-1.9-2.7-3.1-4.8-3.1h-19.9c-1.2,0-2.3,0.4-3.2,1.1L508.7,406.6V223.3c0-2.9-2.4-5.3-5.3-5.3h-16.1
			c-2.9,0-5.3,2.4-5.3,5.3v206.4c0,2,1.2,3.9,3,4.7c1,0.5,2,0.6,3.2,0.4l1-0.1l14.5,0.2c0.9,0,2-0.4,2.9-1.1l4.6-3.5l184.4-142.9
			L448.7,575.3v-352c0-1.3-0.4-2.5-1.3-3.5c-0.3-0.3-0.6-0.6-0.9-0.8c-0.6-0.4-1.5-0.8-2.6-0.9l-0.2,0l-0.9,0H427
			c-1,0.1-1.9,0.5-2.7,1.1c-0.2,0.2-0.4,0.3-0.6,0.5c-0.2,0.2-0.4,0.5-0.6,0.7l-2.4,2.8L93.5,604.9c-1.4,1.6-1.7,3.7-0.8,5.6
			c0.9,1.9,2.7,3,4.8,3h18.4c0.8,0,2.1-0.2,3.2-1L360.8,425z"/>
	</g>
</g>
<g id="Colour" class="st0">
	<g class="st1">
		<linearGradient id="SVGID_3_" gradientUnits="userSpaceOnUse" x1="476.2856" y1="411.9852" x2="903.5448" y2="411.9852">
			<stop  offset="2.237672e-07" style="stop-color:#8B1B1D"/>
			<stop  offset="4.470250e-02" style="stop-color:#AB2120"/>
			<stop  offset="0.103" style="stop-color:#CE2723"/>
			<stop  offset="0.1508" style="stop-color:#E42C25"/>
			<stop  offset="0.1816" style="stop-color:#EC2D26"/>
			<stop  offset="0.2059" style="stop-color:#ED3A2C"/>
			<stop  offset="0.3121" style="stop-color:#F16E43"/>
			<stop  offset="0.4044" style="stop-color:#F49455"/>
			<stop  offset="0.4783" style="stop-color:#F5AB5F"/>
			<stop  offset="0.5245" style="stop-color:#F6B463"/>
			<stop  offset="0.6136" style="stop-color:#F9C770"/>
			<stop  offset="0.7318" style="stop-color:#FCD97C"/>
			<stop  offset="0.8571" style="stop-color:#FEE484"/>
			<stop  offset="1" style="stop-color:#FFE786"/>
		</linearGradient>
		<path class="st7" d="M800.3,209.2c-2-4.3-6.3-7.1-11.1-7.1h-4h-12.8h-4c-2.7,0-5.3,0.9-7.4,2.5L518.8,392.5v43.8l141-109.4
			L456,564.7v57.1l342.4-399.5C801.5,218.7,802.2,213.6,800.3,209.2z"/>
		<linearGradient id="SVGID_4_" gradientUnits="userSpaceOnUse" x1="-21.3666" y1="419.6061" x2="405.8925" y2="419.6061">
			<stop  offset="0" style="stop-color:#FFE786"/>
			<stop  offset="0.1379" style="stop-color:#FFE484"/>
			<stop  offset="0.2588" style="stop-color:#FED97F"/>
			<stop  offset="0.3734" style="stop-color:#FCC775"/>
			<stop  offset="0.4841" style="stop-color:#F9AD68"/>
			<stop  offset="0.592" style="stop-color:#F68D57"/>
			<stop  offset="0.6979" style="stop-color:#F26543"/>
			<stop  offset="0.8002" style="stop-color:#ED362B"/>
			<stop  offset="0.8184" style="stop-color:#EC2D26"/>
			<stop  offset="0.8645" style="stop-color:#E42E28"/>
			<stop  offset="0.9356" style="stop-color:#CE322F"/>
			<stop  offset="1" style="stop-color:#B53637"/>
		</linearGradient>
		<path class="st8" d="M72.5,609.3c-3.1,3.6-3.8,8.7-1.8,13c2,4.3,6.3,7.1,11.1,7.1h2.5h7.2h9.6c2.7,0,5.3-0.9,7.5-2.5l242.1-187.8
			v-43.8L214.1,501.2l200.8-234.3v-57L72.5,609.3z"/>
		<path class="st5" d="M456,522.7V214.4c0,0,0,0,0,0c0-3.1-1.1-5.8-3-8c-0.6-0.6-1.2-1.2-1.9-1.7c-1.8-1.3-3.9-2.2-6.2-2.4
			c-0.6-0.1-1.2-0.1-1.8,0h-16.8c-2.5,0.2-4.7,1-6.6,2.5c-0.6,0.4-1.1,0.9-1.6,1.4c-0.1,0.1-0.2,0.3-0.3,0.4l-2.9,3.4v57V292v325.2
			c0,0,0,0,0,0c0,3.1,1.1,5.9,3.1,8c0.5,0.6,1.1,1.2,1.8,1.7c1.8,1.3,3.9,2.2,6.3,2.4c0.3,0,0.7,0,1,0h0.8h16.8
			c2.5-0.2,4.8-1,6.6-2.5c0.6-0.4,1.1-0.9,1.5-1.4l0.4-0.4l2.9-3.3v-57.1V522.7z"/>
		<path class="st5" d="M350.7,468.2v149c0,6.7,5.5,12.2,12.2,12.2c0.7,0,7.5,0.1,8.2,0h8.6c6.7,0,12.2-5.4,12.2-12.2v-216
			c0-4.7-2.6-8.9-6.8-10.9c-1.6-0.8-3.3-1.2-5.1-1.2l-8.7-0.1c-0.7-0.1-8.3,0.1-9,0.2c-2.4,0.1-4.8,1-6.8,2.5l-4.7,3.7v43.8V468.2z"
			/>
		<path class="st5" d="M518.8,361.9V214.4c0-6.7-5.5-12.2-12.2-12.2h-16.9c-6.7,0-12.2,5.4-12.2,12.2v216c0,4.7,2.7,8.9,6.8,10.9
			c2.3,1.1,4.9,1.5,7.3,1.1c0,0,0,0,0,0l15.1,0.2c2.6-0.1,5.1-0.9,7.2-2.6l4.7-3.7v-43.8V361.9z"/>
	</g>
</g>
</svg>
